<svg width="50" height="50" viewBox="0 0 50 50" fill="none" xmlns="http://www.w3.org/2000/svg">
<path d="M30.9348 25.0011L49.5055 6.43164C50.1648 5.7722 50.1648 4.70509 49.5055 4.04587L45.9564 0.495442C45.6403 0.179562 45.2113 0.00170898 44.7636 0.00170898C44.3157 0.00170898 43.8868 0.179562 43.5707 0.495442L25 19.0663L6.42936 0.495442C6.11326 0.179562 5.68431 0.00170898 5.23648 0.00170898C4.78875 0.00170898 4.35969 0.179562 4.0437 0.495442L0.494574 4.04587C-0.164858 4.70509 -0.164858 5.7722 0.494574 6.43164L19.0652 25.0012L0.496419 43.5685C-0.162688 44.228 -0.162688 45.2951 0.496419 45.9543L4.04577 49.5047C4.36165 49.8206 4.79071 49.9985 5.23854 49.9985C5.68637 49.9985 6.11532 49.8206 6.43153 49.5047L24.9999 30.936L43.5684 49.5047C43.8845 49.8206 44.3135 49.9985 44.7613 49.9985C45.2092 49.9985 45.6382 49.8206 45.9541 49.5047L49.5034 45.9543C50.1625 45.2951 50.1625 44.228 49.5034 43.5685L30.9348 25.0011Z" fill="white"/>
</svg>
