<svg width="100" height="100" viewBox="0 0 100 100" fill="none" xmlns="http://www.w3.org/2000/svg">
<g clip-path="url(#clip0_51_6)">
<rect width="100" height="100" rx="50" fill="white"/>
<rect width="100" height="100" fill="#6F6F6F"/>
<path d="M17.49 50.0086C17.4896 45.637 18.371 41.3103 20.0815 37.2873C21.792 33.2642 24.2964 29.6276 27.445 26.5948C30.5935 23.5621 34.3214 21.1956 38.4057 19.637C42.4899 18.0783 46.8466 17.3596 51.2151 17.5237C51.7073 17.5417 52.1983 17.4627 52.6599 17.291C53.1216 17.1193 53.5449 16.8584 53.9057 16.5231C54.2665 16.1879 54.5577 15.7848 54.7628 15.337C54.9678 14.8892 55.0827 14.4053 55.1007 13.9131C55.1188 13.4209 55.0397 12.93 54.868 12.4683C54.6964 12.0067 54.4354 11.5834 54.1002 11.2226C53.7649 10.8618 53.3619 10.5705 52.914 10.3655C52.4662 10.1604 51.9824 10.0456 51.4902 10.0275C44.2191 9.75763 37.0122 11.4758 30.645 14.997C24.2778 18.5183 18.9914 23.7093 15.3549 30.0114C11.7185 36.3136 9.86953 43.4881 10.0072 50.7628C10.1448 58.0375 12.2638 65.137 16.136 71.297C20.0083 77.4571 25.4872 82.4445 31.983 85.7224C38.4788 89.0003 45.7456 90.4446 53.0012 89.8999C60.2569 89.3551 67.2265 86.842 73.1601 82.6309C79.0937 78.4198 83.7665 72.6702 86.6755 66.001C87.0734 65.0892 87.0928 64.0567 86.7294 63.1306C86.366 62.2045 85.6495 61.4607 84.7377 61.0628C83.8259 60.6649 82.7934 60.6455 81.8673 61.0089C80.9412 61.3724 80.1974 62.0888 79.7995 63.0006C79.4612 63.7692 79.0942 64.5248 78.6993 65.2659C75.2956 71.6716 69.8471 76.7547 63.2209 79.7062C56.5947 82.6577 49.1716 83.308 42.1332 81.5536C35.0947 79.7991 28.8454 75.7408 24.3797 70.0245C19.9141 64.3082 17.4889 57.2624 17.49 50.0086ZM63.627 16.1935C64.0924 15.3153 64.8872 14.6577 65.8371 14.3652C66.7869 14.0726 67.814 14.1691 68.6928 14.6332C69.5779 15.1033 70.4431 15.6034 71.2832 16.1335C71.7002 16.3958 72.0614 16.7377 72.3463 17.1397C72.6312 17.5417 72.8341 17.9958 72.9434 18.4762C73.0528 18.9566 73.0665 19.4538 72.9837 19.9395C72.9009 20.4251 72.7232 20.8897 72.4609 21.3068C72.1985 21.7238 71.8566 22.085 71.4546 22.3699C71.0526 22.6548 70.5985 22.8577 70.1181 22.967C69.6377 23.0764 69.1405 23.09 68.6549 23.0072C68.1692 22.9244 67.7046 22.7468 67.2876 22.4844C66.6029 22.0517 65.9023 21.6447 65.1873 21.2643C64.7518 21.0338 64.366 20.7199 64.0518 20.3403C63.7377 19.9607 63.5015 19.523 63.3566 19.0521C63.2117 18.5812 63.161 18.0864 63.2074 17.5959C63.2538 17.1054 63.3964 16.6289 63.627 16.1935ZM78.6993 27.5452C79.5409 27.0156 80.5584 26.8419 81.528 27.0623C82.4976 27.2827 83.3401 27.8791 83.8701 28.7204C84.4002 29.5605 84.9003 30.4206 85.3703 31.3108C85.6008 31.7462 85.7433 32.2227 85.7897 32.7132C85.836 33.2036 85.7853 33.6984 85.6404 34.1693C85.4955 34.6402 85.2593 35.0779 84.9453 35.4575C84.6312 35.837 84.2455 36.151 83.8101 36.3815C83.3747 36.6121 82.8982 36.7545 82.4077 36.8009C81.9172 36.8472 81.4224 36.7965 80.9516 36.6516C80.4807 36.5067 80.043 36.2705 79.6634 35.9565C79.2838 35.6424 78.9698 35.2567 78.7393 34.8213C78.3608 34.1045 77.9555 33.4022 77.5241 32.716C76.9946 31.8744 76.8209 30.8569 77.0412 29.8873C77.2616 28.9177 77.858 28.0752 78.6993 27.5452ZM86.0854 44.9028C86.5776 44.8848 87.0686 44.9638 87.5302 45.1355C87.9919 45.3072 88.4152 45.5681 88.776 45.9034C89.1368 46.2386 89.4281 46.6417 89.6331 47.0895C89.8381 47.5374 89.953 48.0212 89.971 48.5134C90.006 49.4331 90.0093 50.3538 89.981 51.2738C89.9499 52.2685 89.5248 53.2101 88.7994 53.8914C88.074 54.5728 87.1076 54.938 86.1129 54.9069C85.1182 54.8757 84.1766 54.4506 83.4953 53.7252C82.814 52.9998 82.4487 52.0335 82.4799 51.0388C82.505 50.2889 82.505 49.5383 82.4799 48.7884C82.4434 47.7952 82.8026 46.8281 83.4786 46.0996C84.1547 45.371 85.0923 44.9406 86.0854 44.9028Z" fill="white"/>
<path d="M48.7448 25.0048C49.7395 25.0048 50.6935 25.4 51.3968 26.1033C52.1002 26.8067 52.4953 27.7607 52.4953 28.7554V47.6883L62.9219 52.9041C63.3665 53.1217 63.7636 53.4252 64.0903 53.7971C64.417 54.1689 64.6669 54.6017 64.8255 55.0706C64.9841 55.5395 65.0484 56.0351 65.0146 56.529C64.9807 57.0228 64.8495 57.505 64.6284 57.9479C64.4073 58.3908 64.1007 58.7855 63.7263 59.1093C63.3519 59.4331 62.9172 59.6796 62.4471 59.8346C61.977 59.9896 61.4809 60.05 60.9873 60.0123C60.4938 59.9746 60.0125 59.8396 59.5714 59.6151L47.0695 53.3641C46.446 53.0529 45.9216 52.574 45.555 51.9813C45.1884 51.3886 44.9942 50.7055 44.9942 50.0086V28.7554C44.9942 27.7607 45.3893 26.8067 46.0927 26.1033C46.7961 25.4 47.7501 25.0048 48.7448 25.0048Z" fill="white"/>
</g>
<defs>
<clipPath id="clip0_51_6">
<rect width="100" height="100" rx="50" fill="white"/>
</clipPath>
</defs>
</svg>
