<svg width="70" height="70" viewBox="0 0 70 70" fill="none" xmlns="http://www.w3.org/2000/svg">
<g clip-path="url(#clip0_3_18)">
<path d="M55.3065 8.38658H44.4104C43.8669 3.67333 39.8568 0 35 0C30.1434 0 26.1339 3.67318 25.5903 8.38658H14.6937C10.2841 8.38658 6.69711 11.9746 6.69711 16.384V16.7943C6.69711 20.164 8.79525 23.0481 11.7509 24.2233V62.0026C11.7509 66.4121 15.3383 70 19.7476 70H50.2527C54.6621 70 58.2492 66.4118 58.2492 62.0026V24.2234C61.2048 23.0481 63.303 20.164 63.303 16.7945V16.3842C63.303 11.9746 59.7158 8.38658 55.3065 8.38658ZM35 3.79274C37.7623 3.79274 40.0679 5.77262 40.5781 8.38658H29.423C29.933 5.77248 32.2388 3.79274 35 3.79274ZM54.4565 62.0026C54.4565 64.321 52.5702 66.2074 50.2525 66.2074H19.7475C17.4298 66.2074 15.5435 64.3208 15.5435 62.0026V24.7918H54.4565V62.0026ZM59.5103 16.7943C59.5103 19.1127 57.624 20.9992 55.3063 20.9992H14.6937C12.376 20.9992 10.4897 19.1127 10.4897 16.7943V16.384C10.4897 14.0656 12.376 12.1792 14.6937 12.1792H55.3065C57.6242 12.1792 59.5104 14.0656 59.5104 16.384L59.5103 16.7943Z" fill="white"/>
<path d="M24.8329 61.357C25.8802 61.357 26.7292 60.5078 26.7292 59.4609V38.109C26.7292 37.0619 25.8801 36.2125 24.8329 36.2125C23.7857 36.2125 22.9366 37.0619 22.9366 38.109V59.4609C22.9365 60.5081 23.7856 61.357 24.8329 61.357Z" fill="white"/>
<path d="M35 61.357C36.0473 61.357 36.8964 60.5078 36.8964 59.4609V38.109C36.8964 37.0619 36.047 36.2125 35 36.2125C33.9528 36.2125 33.1037 37.0619 33.1037 38.109V59.4609C33.1037 60.5081 33.9527 61.357 35 61.357Z" fill="white"/>
<path d="M45.1671 61.357C46.2143 61.357 47.0633 60.5078 47.0633 59.4609V38.109C47.0633 37.0619 46.2141 36.2125 45.1671 36.2125C44.1196 36.2125 43.2707 37.0619 43.2707 38.109V59.4609C43.2705 60.5081 44.1199 61.357 45.1671 61.357Z" fill="white"/>
</g>
<defs>
<clipPath id="clip0_3_18">
<rect width="70" height="70" fill="white"/>
</clipPath>
</defs>
</svg>
