<svg width="63" height="63" viewBox="0 0 63 63" fill="none" xmlns="http://www.w3.org/2000/svg">
<g clip-path="url(#clip0_3_10)">
<path d="M1.00528 0.144278L0.979641 0.154532L0.96426 0.164786C0.928371 0.180166 0.897609 0.195547 0.866848 0.216055L0.856594 0.221182L0.825832 0.236563L0.810451 0.246817C0.79507 0.257071 0.779689 0.267325 0.764309 0.277579L0.743801 0.292959H0.738674L0.723293 0.303213L0.707912 0.313467L0.687404 0.328848L0.66177 0.349356H0.656643C0.37466 0.569815 0.169582 0.867178 0.0721702 1.21068C0.0157737 1.385 -0.00473408 1.5747 0.000392874 1.75927V2.81029C0.0106468 4.11767 1.42569 4.9226 2.55361 4.24584C2.89712 4.03564 3.14321 3.72289 3.27139 3.35888H5.04531C6.35269 3.34862 7.15762 1.93358 6.48086 0.805655C6.16812 0.303213 5.64004 0.00585 5.04531 0.000723045H1.75381C1.50772 -0.00953086 1.25137 0.0366117 1.00528 0.144278ZM51.839 62.9905C51.8851 63.0007 51.9364 63.0007 51.9877 62.9905C52.0031 62.9802 52.0236 62.97 52.0389 62.9648L57.0429 60.0784C57.089 60.0476 57.1198 59.9963 57.1351 59.9451C57.1454 59.904 57.1454 59.863 57.13 59.8374L51.6442 50.2756C51.598 50.1936 51.5673 50.1064 51.5468 50.0142C51.4493 49.5322 51.757 49.0657 52.2389 48.9683L60.2882 47.302C60.2985 47.2969 60.3087 47.2969 60.319 47.2969C61.0111 47.1533 61.6007 46.9072 61.9904 46.5996C62.1801 46.4509 62.3082 46.2971 62.3595 46.1536C62.3903 46.0613 62.3749 45.9536 62.3134 45.8306C62.2006 45.6204 61.975 45.3845 61.6007 45.1333L34.2433 26.3994L36.7811 59.4477C36.817 59.8989 36.9042 60.2117 37.0272 60.4116C37.099 60.5295 37.1862 60.5911 37.2836 60.6116C37.4323 60.6423 37.6271 60.6064 37.8527 60.5193C38.3141 60.3347 38.8165 59.9451 39.2933 59.417L44.7843 53.2544C44.8458 53.1877 44.9176 53.1262 45.0048 53.0749C45.4303 52.8288 45.9738 52.9724 46.2199 53.3979L51.757 62.929C51.7672 62.9597 51.798 62.9802 51.839 62.9905ZM0.825832 0.236563C0.805324 0.251944 0.784816 0.262198 0.764309 0.277579L0.825832 0.236563ZM3.36367 9.53173C3.35342 8.22436 1.93838 7.41943 0.810451 8.09618C0.302883 8.40893 0.00551983 8.937 0.000392874 9.53173V12.8899C0.0106468 14.1973 1.42569 15.0022 2.55361 14.3254C3.06118 14.0127 3.35855 13.4846 3.36367 12.8899V9.53173ZM3.36367 19.6164C3.35342 18.3091 1.93838 17.5041 0.810451 18.1809C0.302883 18.4885 0.00551983 19.0217 0.000392874 19.6164V22.9746C0.0106468 24.282 1.42569 25.0869 2.55361 24.4102C3.06118 24.0974 3.35855 23.5693 3.36367 22.9746V19.6164ZM3.36367 29.696C3.35342 28.3887 1.93838 27.5837 0.810451 28.2605C0.302883 28.5732 0.00551983 29.1013 0.000392874 29.696V33.0593C0.0106468 34.3667 1.42569 35.1716 2.55361 34.4949C3.06118 34.1821 3.35855 33.654 3.36367 33.0593V29.696ZM3.36367 39.7808C3.35342 38.4734 1.93838 37.6684 0.810451 38.3452C0.302883 38.658 0.00551983 39.186 0.000392874 39.7808V43.1389C0.0106468 44.4463 1.42569 45.2512 2.55361 44.5745C3.06118 44.2617 3.35855 43.7336 3.36367 43.1389V39.7808ZM3.36367 49.8603C3.35342 48.553 1.93838 47.748 0.810451 48.4248C0.302883 48.7375 0.00551983 49.2656 0.000392874 49.8603V53.2236C0.0106468 54.531 1.42569 55.3359 2.55361 54.6592C3.06118 54.3464 3.35855 53.8184 3.36367 53.2236V49.8603ZM6.73208 53.2134C5.42471 53.2236 4.61978 54.6387 5.29653 55.7666C5.60928 56.2742 6.13735 56.5715 6.73208 56.5767H10.0902C11.3976 56.5664 12.2025 55.1514 11.5258 54.0234C11.213 53.5159 10.685 53.2185 10.0902 53.2134H6.73208ZM16.8117 53.2134C15.5043 53.2236 14.6994 54.6387 15.3761 55.7666C15.6889 56.2742 16.2169 56.5715 16.8117 56.5767H20.1749C21.4823 56.5664 22.2873 55.1514 21.6105 54.0234C21.2977 53.5159 20.7697 53.2185 20.1749 53.2134H16.8117ZM26.8964 53.2134C25.589 53.2236 24.7841 54.6387 25.4608 55.7666C25.7736 56.2742 26.3017 56.5715 26.8964 56.5767H30.2597C31.567 56.5664 32.372 55.1514 31.6952 54.0234C31.3825 53.5159 30.8544 53.2185 30.2597 53.2134H26.8964ZM53.213 32.4851C53.2233 33.7925 54.6383 34.5974 55.7662 33.9207C56.2738 33.6079 56.5712 33.0798 56.5763 32.4851V29.1218C56.566 27.8144 55.151 27.0095 54.0231 27.6863C53.5155 27.999 53.2181 28.5271 53.213 29.1218V32.4851ZM53.213 22.4055C53.2233 23.7129 54.6383 24.5178 55.7662 23.8411C56.2738 23.5283 56.5712 23.0002 56.5763 22.4055V19.0422C56.566 17.7349 55.151 16.9299 54.0231 17.6067C53.5155 17.9194 53.2181 18.4475 53.213 19.0422V22.4055ZM53.213 12.3208C53.2233 13.6282 54.6383 14.4331 55.7662 13.7563C56.2738 13.4436 56.5712 12.9155 56.5763 12.3208V8.96264C56.566 7.65526 55.151 6.85033 54.0231 7.52709C53.5155 7.83984 53.2181 8.36791 53.213 8.96264V12.3208ZM53.6437 3.364C54.1513 3.92797 55.0228 4.12792 55.7662 3.67675C56.2738 3.364 56.5712 2.83593 56.5763 2.2412V1.75414C56.5917 1.4414 56.5148 1.11327 56.3353 0.810782C56.0226 0.303213 55.4945 0.00585 54.8998 0.000723045H52.0953C50.788 0.010977 49.983 1.42602 50.6598 2.55395C50.9725 3.06151 51.5006 3.35888 52.0953 3.364H53.6437ZM45.3739 3.364C46.6813 3.35375 47.4862 1.93871 46.8095 0.810782C46.4967 0.303213 45.9686 0.00585 45.3739 0.000723045H42.0158C40.7084 0.010977 39.9035 1.42602 40.5802 2.55395C40.893 3.06151 41.421 3.35888 42.0158 3.364H45.3739ZM35.2892 3.364C36.5966 3.35375 37.4015 1.93871 36.7247 0.810782C36.412 0.303213 35.8839 0.00585 35.2892 0.000723045H31.9259C30.6185 0.010977 29.8136 1.42602 30.4904 2.55395C30.8031 3.06151 31.3312 3.35888 31.9259 3.364H35.2892ZM25.2096 3.364C26.517 3.35375 27.3219 1.93871 26.6452 0.810782C26.3324 0.303213 25.8043 0.00585 25.2096 0.000723045H21.8463C20.539 0.010977 19.734 1.42602 20.4108 2.55395C20.7235 3.06151 21.2516 3.35888 21.8463 3.364H25.2096ZM15.1249 3.364C16.4323 3.35375 17.2372 1.93871 16.5604 0.810782C16.2528 0.303213 15.7196 0.00585 15.1249 0.000723045H11.7667C10.4594 0.010977 9.65444 1.42602 10.3312 2.55395C10.6439 3.06151 11.172 3.35888 11.7667 3.364H15.1249Z" fill="white"/>
</g>
<defs>
<clipPath id="clip0_3_10">
<rect width="62.3694" height="63" fill="white"/>
</clipPath>
</defs>
</svg>
