<svg width="60" height="60" viewBox="0 0 60 60" fill="none" xmlns="http://www.w3.org/2000/svg">
<g clip-path="url(#clip0_3_66)">
<path d="M43.9358 32.1032C43.9358 32.6377 43.4987 33.0755 42.964 33.0755H10.9599C10.425 33.0755 9.98804 32.6379 9.98804 32.1032V31.4556C9.98804 30.9211 10.425 30.4835 10.9599 30.4835H42.964C43.4985 30.4835 43.9358 30.9209 43.9358 31.4556V32.1032Z" fill="white"/>
<path d="M29.6331 39.7832C29.6331 40.3176 29.1959 40.7554 28.6614 40.7554H10.9601C10.4252 40.7554 9.98825 40.3178 9.98825 39.7832V39.1355C9.98825 38.601 10.4252 38.1636 10.9601 38.1636H28.6614C29.1959 38.1636 29.6331 38.601 29.6331 39.1355V39.7832Z" fill="white"/>
<path d="M53.7783 0.000183105C53.7783 0.000183105 50.1677 0.000183105 48.9642 0.000183105C48.0705 0.000183105 48.1592 0.819677 48.1592 0.819677V13.6317C48.1592 14.8756 47.1413 15.8935 45.8974 15.8935H14.1026C12.8587 15.8935 11.8407 14.8756 11.8407 13.6317C11.8407 13.6317 11.8407 3.74729 11.8407 0.434757C11.8407 0.000183105 11.4761 0.000183105 11.4761 0.000183105H6.22167C4.03688 0.000183105 2.24933 1.78774 2.24933 3.97252V56.0277C2.24933 58.2124 4.03688 60 6.22167 60H53.7783C55.9631 60 57.7507 58.2124 57.7507 56.0277V3.97232C57.7507 1.78774 55.9631 0.000183105 53.7783 0.000183105ZM52.642 49.0584C52.642 50.0415 51.8376 50.8459 50.8545 50.8459H9.14571C8.16255 50.8459 7.35815 50.0415 7.35815 49.0584V27.2105C7.35815 26.2274 8.16255 25.423 9.14571 25.423H50.8545C51.8376 25.423 52.642 26.2274 52.642 27.2105V49.0584Z" fill="white"/>
<path d="M17.9311 0.000198617C17.5422 0.000198617 17.5907 0.377372 17.5907 0.377372V12.1631C17.5907 12.7093 18.0376 13.1562 18.5838 13.1562H22.1231C22.6693 13.1562 23.1162 12.7093 23.1162 12.1631V0.358901C23.1162 0.358901 23.1162 0 22.7599 0C21.5372 0.000198617 19.2273 0.000198617 17.9311 0.000198617Z" fill="white"/>
</g>
<defs>
<clipPath id="clip0_3_66">
<rect width="60" height="60" fill="white"/>
</clipPath>
</defs>
</svg>
