<svg width="70" height="70" viewBox="0 0 70 70" fill="none" xmlns="http://www.w3.org/2000/svg">
<g clip-path="url(#clip0_3_5)">
<path d="M54.4722 13.827H51.8715L50.9084 10.6547C49.9981 7.65684 47.2823 5.64288 44.1506 5.64288H27.1682C24.0355 5.64288 21.3187 7.65684 20.4094 10.6547L19.4463 13.827H15.5287C6.96632 13.827 0 20.7933 0 29.3567V48.8284C0 57.3908 6.96632 64.3571 15.5287 64.3571H54.4713C63.0337 64.3571 70 57.3908 70 48.8284V29.3567C70.0009 20.7933 63.0346 13.827 54.4722 13.827ZM64.3411 48.8275C64.3411 54.2694 59.9142 58.6964 54.4722 58.6964H15.5287C10.0868 58.6954 5.65984 54.2685 5.65984 48.8275V29.3567C5.65984 23.9147 10.0868 19.4878 15.5287 19.4878H23.644L25.8259 12.2989C26.007 11.7036 26.5466 11.3037 27.1682 11.3037H44.1506C44.7722 11.3037 45.3108 11.7036 45.4929 12.3007L47.6757 19.4878H54.4713C59.9132 19.4878 64.3402 23.9147 64.3402 29.3567L64.3411 48.8275Z" fill="white"/>
<path d="M35.1175 23.9657C26.7748 23.9657 19.9868 30.7528 19.9868 39.0963C19.9868 47.439 26.7739 54.2261 35.1175 54.2261C43.461 54.2261 50.2491 47.439 50.2491 39.0963C50.2491 30.7528 43.461 23.9657 35.1175 23.9657ZM35.1175 48.5672C29.8953 48.5672 25.6467 44.3185 25.6467 39.0973C25.6467 33.8751 29.8953 29.6265 35.1175 29.6265C40.3406 29.6265 44.5892 33.8751 44.5892 39.0973C44.5892 44.3185 40.3406 48.5672 35.1175 48.5672Z" fill="white"/>
</g>
<defs>
<clipPath id="clip0_3_5">
<rect width="70" height="70" fill="white"/>
</clipPath>
</defs>
</svg>
