<?xml version="1.0" standalone="no"?>
<!DOCTYPE svg PUBLIC "-//W3C//DTD SVG 20010904//EN"
 "http://www.w3.org/TR/2001/REC-SVG-20010904/DTD/svg10.dtd">
<svg version="1.0" xmlns="http://www.w3.org/2000/svg"
 width="512.000000pt" height="512.000000pt" viewBox="0 0 512.000000 512.000000"
 preserveAspectRatio="xMidYMid meet">

<g transform="translate(0.000000,512.000000) scale(0.100000,-0.100000)"
fill="#000000" stroke="none">
<path d="M1774 4516 c-65 -16 -117 -48 -152 -94 -15 -19 -83 -135 -152 -256
l-126 -221 -249 -6 c-253 -6 -326 -15 -440 -50 -360 -111 -596 -401 -644 -794
-7 -59 -11 -381 -11 -940 0 -692 3 -868 15 -945 68 -446 419 -769 879 -810
149 -13 3183 -13 3332 0 460 41 811 364 879 810 22 140 22 1770 0 1911 -57
383 -333 688 -710 785 -90 23 -126 27 -360 32 l-259 7 -133 235 c-143 252
-176 294 -261 327 -44 17 -98 18 -802 20 -576 1 -767 -1 -806 -11z m-867 -980
c84 -56 124 -168 93 -260 -51 -154 -253 -201 -369 -85 -111 112 -76 298 69
364 55 24 155 15 207 -19z m1896 -2 c421 -70 811 -361 999 -746 91 -185 136
-361 145 -564 18 -382 -127 -759 -396 -1030 -270 -273 -610 -415 -991 -415
-381 0 -721 142 -991 415 -269 272 -414 647 -396 1030 31 700 562 1258 1262
1326 100 10 253 3 368 -16z"/>
<path d="M2375 3093 c-412 -88 -712 -418 -754 -827 -41 -398 166 -771 524
-946 152 -75 240 -95 415 -95 175 0 263 20 415 95 237 115 418 328 489 572
179 619 -273 1222 -911 1217 -59 0 -139 -7 -178 -16z"/>
</g>
</svg>
